<svg width="100" height="65" viewBox="0 0 100 65" fill="none" xmlns="http://www.w3.org/2000/svg">
<rect x="70" width="30" height="30" rx="5" fill="#FFAC0B"/>
<rect x="66" width="30" height="66" rx="5" transform="rotate(90 66 0)" fill="#E50052"/>
<rect x="100" y="34" width="30" height="100" rx="5" transform="rotate(90 100 34)" fill="#7C2DEA"/>
<path d="M20.8368 54.828C21.7888 54.828 22.6662 54.6227 23.4688 54.212C24.2902 53.8013 25.0275 53.1947 25.6808 52.392L28.8448 55.5C27.9302 56.6387 26.7262 57.5533 25.2328 58.244C23.7582 58.9347 22.2368 59.28 20.6688 59.28C19.1942 59.28 17.8035 59.0187 16.4968 58.496C15.2088 57.9733 14.0982 57.264 13.1648 56.368C12.2315 55.472 11.4942 54.408 10.9528 53.176C10.4115 51.944 10.1408 50.6187 10.1408 49.2C10.1408 47.7813 10.4115 46.456 10.9528 45.224C11.4942 43.9733 12.2315 42.9 13.1648 42.004C14.1168 41.108 15.2368 40.3987 16.5248 39.876C17.8128 39.3533 19.1942 39.092 20.6688 39.092C21.4715 39.092 22.2742 39.1853 23.0768 39.372C23.8795 39.5587 24.6448 39.82 25.3728 40.156C26.1008 40.4733 26.7728 40.8747 27.3888 41.36C28.0048 41.8267 28.5368 42.3493 28.9848 42.928L25.7368 46.12C25.0462 45.2613 24.2715 44.6173 23.4128 44.188C22.5728 43.74 21.6582 43.516 20.6688 43.516C19.8848 43.516 19.1475 43.6653 18.4568 43.964C17.7848 44.244 17.1968 44.636 16.6928 45.14C16.2075 45.644 15.8155 46.2507 15.5168 46.96C15.2368 47.6507 15.0968 48.3973 15.0968 49.2C15.0968 50.0027 15.2368 50.7493 15.5168 51.44C15.8155 52.112 16.2168 52.7 16.7208 53.204C17.2435 53.708 17.8502 54.1093 18.5408 54.408C19.2502 54.688 20.0155 54.828 20.8368 54.828ZM50.5809 49.2C50.5809 50.6 50.3103 51.9253 49.7689 53.176C49.2276 54.408 48.4903 55.4813 47.5569 56.396C46.6236 57.292 45.5129 58.0013 44.2249 58.524C42.9369 59.0467 41.5649 59.308 40.1089 59.308C38.6529 59.308 37.2809 59.0467 35.9929 58.524C34.7049 58.0013 33.5943 57.292 32.6609 56.396C31.7276 55.4813 30.9903 54.408 30.4489 53.176C29.9076 51.9253 29.6369 50.6 29.6369 49.2C29.6369 47.8 29.9076 46.484 30.4489 45.252C30.9903 44.0013 31.7276 42.928 32.6609 42.032C33.5943 41.1173 34.7049 40.3987 35.9929 39.876C37.2809 39.3533 38.6529 39.092 40.1089 39.092C41.5649 39.092 42.9369 39.3533 44.2249 39.876C45.5129 40.3987 46.6236 41.1173 47.5569 42.032C48.4903 42.928 49.2276 44.0013 49.7689 45.252C50.3103 46.484 50.5809 47.8 50.5809 49.2ZM45.6249 49.2C45.6249 48.3973 45.4849 47.6507 45.2049 46.96C44.9249 46.2507 44.5329 45.644 44.0289 45.14C43.5436 44.636 42.9649 44.244 42.2929 43.964C41.6209 43.6653 40.8929 43.516 40.1089 43.516C39.3249 43.516 38.5969 43.6653 37.9249 43.964C37.2529 44.244 36.6649 44.636 36.1609 45.14C35.6756 45.644 35.2929 46.2507 35.0129 46.96C34.7329 47.6507 34.5929 48.3973 34.5929 49.2C34.5929 50.0027 34.7329 50.7587 35.0129 51.468C35.2929 52.1587 35.6756 52.756 36.1609 53.26C36.6649 53.764 37.2529 54.1653 37.9249 54.464C38.5969 54.744 39.3249 54.884 40.1089 54.884C40.8929 54.884 41.6209 54.744 42.2929 54.464C42.9649 54.1653 43.5436 53.764 44.0289 53.26C44.5329 52.756 44.9249 52.1587 45.2049 51.468C45.4849 50.7587 45.6249 50.0027 45.6249 49.2ZM53.1416 59V39.4H61.0936C62.5309 39.4 63.8843 39.6613 65.1536 40.184C66.4229 40.688 67.5149 41.3787 68.4296 42.256C69.3629 43.1333 70.1003 44.1787 70.6416 45.392C71.1829 46.5867 71.4536 47.8747 71.4536 49.256C71.4536 50.6 71.1829 51.8693 70.6416 53.064C70.1003 54.2587 69.3629 55.2947 68.4296 56.172C67.5149 57.0493 66.4229 57.74 65.1536 58.244C63.8843 58.748 62.5309 59 61.0936 59H53.1416ZM60.9816 43.656H57.9576V54.744H60.9816C61.7469 54.744 62.4656 54.604 63.1376 54.324C63.8096 54.044 64.3883 53.6613 64.8736 53.176C65.3776 52.672 65.7696 52.084 66.0496 51.412C66.3296 50.74 66.4696 50.0213 66.4696 49.256C66.4696 48.472 66.3296 47.744 66.0496 47.072C65.7696 46.3813 65.3776 45.784 64.8736 45.28C64.3883 44.776 63.8096 44.384 63.1376 44.104C62.4656 43.8053 61.7469 43.656 60.9816 43.656ZM74.0049 59V39.4H89.4609V43.572H78.8209V47.1H85.8489V51.132H78.8209V54.828H89.5729V59H74.0049Z" fill="#FAFAFA"/>
<path d="M28.18 16.46C28.18 17.7853 27.9653 18.9987 27.536 20.1C27.1067 21.1827 26.5 22.1067 25.716 22.872C24.9507 23.6373 24.0173 24.2347 22.916 24.664C21.8147 25.0747 20.592 25.28 19.248 25.28C17.904 25.28 16.672 25.0747 15.552 24.664C14.4507 24.2533 13.5173 23.6653 12.752 22.9C11.9867 22.1347 11.3893 21.2107 10.96 20.128C10.5493 19.0267 10.344 17.804 10.344 16.46V5.4H15.16V16.46C15.16 17.7853 15.5333 18.8493 16.28 19.652C17.0453 20.436 18.044 20.828 19.276 20.828C20.508 20.828 21.4973 20.436 22.244 19.652C22.9907 18.8493 23.364 17.7853 23.364 16.46V5.4H28.18V16.46ZM31.1592 25V5.4H35.9752V25H31.1592Z" fill="#FAFAFA"/>
</svg>
